<mxfile host="app.diagrams.net" modified="2024-01-01T12:30:22.352Z" agent="Mozilla/5.0 (Windows NT 10.0; Win64; x64) AppleWebKit/537.36 (KHTML, like Gecko) Chrome/120.0.0.0 Safari/537.36 Edg/120.0.0.0" version="22.1.16" etag="nya1sle5NtG8t5ri3nHg" type="github">
  <diagram name="第 1 页" id="ZBhWPgA_R12ZVzd4e7T6">
    <mxGraphModel>
      <root>
        <mxCell id="0" />
        <mxCell id="1" parent="0" />
      </root>
    </mxGraphModel>
  </diagram>
</mxfile>
